<svg version="1.2" baseProfile="tiny-ps" xmlns="http://www.w3.org/2000/svg" viewBox="0 0 143 40" width="143" height="40">
	<title>heroku-svg</title>
	<style>
		tspan { white-space:pre }
		.shp0 { fill: #430098 } 
	</style>
	<g id="Page-1">
		<g id="main">
			<g id="nav">
				<path id="logo" fill-rule="evenodd" class="shp0" d="M35.9 3.6L35.9 36.4C35.9 38.4 34.3 40 32.3 40L3.6 40C1.6 40 0 38.4 0 36.4L0 3.6C0 1.6 1.6 0 3.6 0L32.3 0C34.3 0 35.9 1.6 35.9 3.6ZM33.9 36.4L33.9 3.6C33.9 2.7 33.2 2 32.3 2L3.6 2C2.7 2 2 2.7 2 3.6L2 36.4C2 37.3 2.7 38 3.6 38L32.3 38C33.2 38 33.9 37.3 33.9 36.4ZM26.8 22L26.8 34L22.8 34L22.8 22C22.8 21 22.3 19.9 20.3 19.9C16.3 19.9 11.7 22 11.7 22L8.9 23.3L8.9 6L12.9 6L12.9 17.4C14.9 16.7 17.7 16 20.4 16C22.9 16 24.4 17 25.2 17.8C26.9 19.5 26.9 21.7 26.8 22ZM9 26L13.5 30L9 34L9 26ZM22.9 6L26.9 6C26.6 8.3 25.7 10.4 23.9 12.5L19.9 12.5C21.5 10.4 22.5 8.3 22.9 6ZM130.4 21.9L130.4 13.1L134.4 13.1L134.4 21.9C134.4 23.9 135.1 24.9 136.7 24.9C138.3 24.9 138.9 24 138.9 21.9L138.9 13.1L142.8 13.1L142.8 22C142.8 25.9 140.9 28.2 136.6 28.2C132.3 28.1 130.4 25.8 130.4 21.9ZM113.6 13.1L117.6 13.1L117.6 18.5L121.7 13.1L126.3 13.1L121.3 18.9L126.7 27.9L122.2 27.9L118.7 22L117.6 23.3L117.6 27.9L113.6 27.9L113.6 13.1ZM94.6 20.4C94.6 15 98.3 12.7 101.9 12.7C105.5 12.7 109.2 15 109.2 20.4C109.2 25.8 105.5 28.1 101.9 28.1C98.3 28.1 94.6 25.9 94.6 20.4ZM105.1 20.4C105.1 17.7 103.9 16 101.8 16C99.7 16 98.5 17.7 98.5 20.4C98.5 23.1 99.7 24.9 101.8 24.9C103.9 24.9 105.1 23.2 105.1 20.4ZM78.5 13.1L84.3 13.1C88.1 13.1 90.4 14.4 90.4 17.9C90.4 20.2 89.4 21.6 87.5 22.2L90.6 27.9L86.4 27.9L83.5 22.8L82.4 22.8L82.4 27.9L78.5 27.9L78.5 13.1ZM86.6 18C86.6 16.8 85.9 16.3 84.2 16.3L82.5 16.3L82.5 19.7L84.2 19.7C85.8 19.7 86.6 19.2 86.6 18ZM73.8 13.1L73.8 16.4L67.2 16.4L67.2 18.8L71.9 18.8L71.9 21.9L67.2 21.9L67.2 24.6L74.1 24.6L74.1 27.8L63.2 27.8L63.2 13.1L73.8 13.1ZM45.1 13.1L49.1 13.1L49.1 18.6L54 18.6L54 13.1L58 13.1L58 27.9L54 27.9L54 21.9L49.1 21.9L49.1 27.9L45.1 27.9L45.1 13.1Z" />
			</g>
		</g>
	</g>
</svg>